#N struct 1333-value float width float y symbol text float visible float border float background;
#N canvas 65 85 1104 739 12;
#N canvas 328 330 702 476 \$0-display 0;
#X scalar 1333-value 42 0 1 0 0 0 \;;
#X scalar 1333-value 42 0 2 1 1 0 \;;
#X scalar 1333-value 42 0 bla 0 0 0 \;;
#X coords 0 0 42 1 42 19 2 80 80;
#X restore 80 80 pd \$0-display;
#X obj 497 80 inlet;
#X msg 497 197 click;
#X msg 884 538 0;
#X obj 831 442 r \$0-kwarg-DONE;
#X obj 497 124 route click edit float list bang;
#X obj 863 634 text fromlist \$0-values;
#X obj 891 514 text fromlist \$0-values;
#X obj 884 490 savestate;
#X obj 884 466 text tolist \$0-values;
#X obj 831 586 t b b;
#X obj 831 562 spigot 1;
#X obj 673 173 s \$0-output;
#X obj 497 221 text define \$0-values;
#X msg 863 610 list dropdown \\\;;
#X obj 800 245 loadbang;
#X obj 641 245 route updated;
#X msg 832 293 args;
#X obj 832 317 pdcontrol;
#X obj 800 269 t b b;
#X obj 890 80 namecanvas \$0-canvas;
#N canvas 411 454 252 462 maxchars 0;
#X obj 53 36 inlet;
#X obj 53 132 fudiformat;
#X obj 53 156 list tosymbol;
#X obj 53 180 list fromsymbol;
#X obj 53 204 list split 5;
#X obj 93 228 list length;
#X obj 93 252 - 2;
#X obj 53 108 text sequence \$0-values;
#X msg 53 84 line 0 \, bang;
#X obj 53 60 t b b;
#X obj 137 276 f;
#X obj 93 276 max 1;
#X msg 151 84 0;
#X obj 93 300 outlet;
#X connect 0 0 9 0;
#X connect 1 0 2 0;
#X connect 2 0 3 0;
#X connect 3 0 4 0;
#X connect 4 1 5 0;
#X connect 5 0 6 0;
#X connect 6 0 11 0;
#X connect 7 0 1 0;
#X connect 8 0 7 0;
#X connect 9 0 8 0;
#X connect 9 1 12 0;
#X connect 10 0 11 1;
#X connect 11 0 10 0;
#X connect 11 0 13 0;
#X connect 12 0 11 1;
#X restore 673 312 pd maxchars;
#X obj 641 288 t b b;
#X obj 641 408 s \$0-reset;
#X obj 673 384 s \$0-charwidth;
#N canvas 179 222 627 300 sendkwarg 0;
#X obj 37 37 inlet;
#X obj 37 61 list split 1;
#X obj 37 157 list, f 6;
#X obj 37 181 s;
#X obj 37 85 t b s;
#X text 148 37 expects keyword argument lists from [argsparse] and sends to localized receivers with name pattern "\$0-kwarg-<keyword>";
#X msg 55 133 symbol \$2-kwarg-\$1;
#X obj 55 109 pack s \$0;
#X connect 0 0 1 0;
#X connect 1 0 4 0;
#X connect 1 1 2 1;
#X connect 2 0 3 0;
#X connect 4 0 2 0;
#X connect 4 1 7 0;
#X connect 6 0 3 1;
#X connect 7 0 6 0;
#X restore 913 365 pd sendkwarg;
#X obj 831 658 s \$0-edit;
#X obj 503 173 r \$0-edit;
#X obj 585 173 t f;
#X obj 673 336 * 7;
#N canvas 315 320 726 460 value-template 1;
#X obj 44 107 route click;
#X obj 44 131 unpack p f f;
#X obj 125 155 s \$0-click;
#X obj 44 47 struct \$0-value float width float y symbol text float visible float border float background, f 91;
#X obj 44 287 drawpolygon -n -xe -v border 0 0 0 0 width 0 width 1 0 1, f 63;
#X obj 44 263 filledpolygon -n -xe -v background 999 0 0 0 0 width 0 width 1 0 1, f 66;
#X obj 44 210 drawsymbol -n -v visible text 2 0.17 0;
#X connect 0 0 1 0;
#X connect 1 2 2 0;
#X connect 3 0 0 0;
#X restore 890 104 pd value-template;
#X obj 673 360 + 21;
#X obj 104 81 cnv 17 17 17 empty \$0-arrow ▼ 6 8 0 11 #ffffff #000000 0;
#N canvas 875 86 668 871 argsparse 0;
#X obj 79 187 list_iterate;
#X obj 143 406 list;
#X obj 111 268 list fromsymbol;
#X obj 111 316 == 45;
#X obj 231 316 t l;
#X obj 168 340 list prepend;
#X obj 111 292 t f;
#X obj 79 228 t l s;
#X obj 111 382 t b b;
#X text 226 267 collect content until next "-" or end;
#X obj 111 340 sel 1;
#X obj 143 471 list fromsymbol;
#X obj 143 519 == 45;
#X obj 143 495 t f;
#X obj 143 706 list;
#X obj 282 706 list;
#X obj 143 430 t s l l;
#X obj 143 784 outlet;
#X obj 282 784 outlet;
#X obj 282 730 list trim;
#X obj 56 54 inlet;
#X text 332 783 kwargs;
#X text 193 783 args;
#X text 201 542 output dependent on kwargs or args;
#X text 153 381 output and reset collection;
#X obj 143 543 sel 0 1;
#X obj 267 562 list split 1;
#X text 359 633 remove leading "-";
#X obj 267 610 list fromsymbol;
#X obj 267 634 list split 1;
#X obj 307 658 list tosymbol;
#X obj 307 682 list;
#X text 226 53 handles given arguments and splits flags/float and keyword arguments., f 46;
#X obj 56 121 t b l b;
#X msg 511 730 START;
#X msg 462 730 DONE;
#X text 226 110 generates two kwargs before and after output: START and DONE, f 45;
#X obj 267 586 route symbol;
#X connect 0 0 7 0;
#X connect 0 1 8 0;
#X connect 1 0 16 0;
#X connect 2 0 6 0;
#X connect 3 0 10 0;
#X connect 4 0 5 1;
#X connect 5 0 4 0;
#X connect 5 0 1 1;
#X connect 6 0 3 0;
#X connect 7 0 5 0;
#X connect 7 1 2 0;
#X connect 8 0 5 1;
#X connect 8 1 1 0;
#X connect 10 0 8 0;
#X connect 11 0 13 0;
#X connect 12 0 25 0;
#X connect 13 0 12 0;
#X connect 14 0 17 0;
#X connect 15 0 19 0;
#X connect 16 0 11 0;
#X connect 16 1 14 1;
#X connect 16 2 26 0;
#X connect 19 0 18 0;
#X connect 20 0 33 0;
#X connect 25 0 14 0;
#X connect 25 1 15 0;
#X connect 26 0 37 0;
#X connect 26 1 31 1;
#X connect 28 0 29 0;
#X connect 29 1 30 0;
#X connect 30 0 31 0;
#X connect 31 0 15 1;
#X connect 33 0 35 0;
#X connect 33 1 0 0;
#X connect 33 2 34 0;
#X connect 34 0 18 0;
#X connect 35 0 18 0;
#X connect 37 0 28 0;
#X restore 832 341 pd argsparse;
#X obj 584 658 outlet;
#N canvas 325 126 384 572 output_by_mode 0;
#X obj 75 69 inlet;
#X obj 136 174 text get \$0-values;
#X obj 75 367 list, f 9;
#X obj 180 367 f;
#X obj 75 415 list prepend;
#X obj 75 174 t b b;
#X obj 75 127 t b f f, f 18;
#X obj 180 391 spigot;
#X obj 83 295 r \$0-output;
#X obj 75 343 sel 1 0;
#X obj 217 240 + 1;
#X obj 217 300 & 1;
#X obj 246 300 & 1;
#X obj 246 276 >> 1;
#X obj 75 319 f 1;
#X obj 75 479 outlet;
#X obj 217 69 inlet;
#X connect 0 0 6 0;
#X connect 1 0 2 1;
#X connect 2 0 4 0;
#X connect 3 0 7 0;
#X connect 4 0 15 0;
#X connect 5 0 14 0;
#X connect 5 1 3 0;
#X connect 6 0 5 0;
#X connect 6 1 1 0;
#X connect 6 2 3 1;
#X connect 7 0 4 1;
#X connect 8 0 14 0;
#X connect 9 0 2 0;
#X connect 9 1 4 0;
#X connect 10 0 11 0;
#X connect 10 0 13 0;
#X connect 11 0 14 1;
#X connect 12 0 7 1;
#X connect 13 0 12 0;
#X connect 14 0 9 0;
#X connect 16 0 10 0;
#X restore 585 572 pd output_by_mode;
#X obj 700 548 r \$0-kwarg-mode;
#N canvas 366 189 978 702 manage_state_and_clicks 0;
#X obj 665 534 s pd-\$0-display;
#X obj 778 534 s \$0-canvas;
#X obj 59 114 tgl 19 0 empty empty empty 0 -10 0 12 #fcfcfc #000000 #000000 0 1;
#X obj 247 631 outlet;
#X obj 734 438 r \$0-charwidth;
#X obj 665 365 text size \$0-values;
#X obj 665 414 t f f;
#X obj 697 438 * 19;
#X obj 665 462 pack f f f;
#X obj 665 510 t a a;
#X obj 59 76 t b f;
#X obj 59 52 r \$0-click;
#X msg 625 395 1;
#X obj 473 511 text sequence \$0-values;
#X msg 473 487 line 0 \, bang;
#X obj 473 535 t a b;
#X obj 473 583 list2symbol;
#N canvas 16 512 640 572 reset_menu 0;
#X obj 203 165 pointer;
#X obj 203 117 f \$0;
#X msg 203 141 traverse pd-\$1-display \, bang;
#X obj 52 209 t s b;
#X msg 84 233 next;
#X obj 203 45 inlet;
#X text 245 44 reset;
#X obj 52 45 inlet;
#X text 95 44 values;
#X obj 203 69 t b b;
#X msg 240 93 clear;
#X obj 240 117 s pd-\$0-display;
#X obj 52 307 set -symbol \$0-value text;
#X obj 119 259 append \$0-value y visible background border width;
#X obj 391 235 r \$0-charwidth;
#X obj 52 185 unpack s f f f f;
#X connect 0 0 12 1;
#X connect 0 0 13 5;
#X connect 1 0 2 0;
#X connect 2 0 0 0;
#X connect 3 0 12 0;
#X connect 3 1 4 0;
#X connect 4 0 0 0;
#X connect 5 0 9 0;
#X connect 7 0 15 0;
#X connect 9 0 1 0;
#X connect 9 1 10 0;
#X connect 10 0 11 0;
#X connect 14 0 13 4;
#X connect 15 0 3 0;
#X connect 15 1 13 0;
#X connect 15 2 13 1;
#X connect 15 3 13 2;
#X connect 15 4 13 3;
#X restore 473 631 pd reset_menu;
#X obj 450 52 r \$0-reset;
#N canvas 62 406 472 528 display_all 0;
#X obj 173 188 pointer;
#X obj 54 51 inlet;
#X text 97 50 values;
#X msg 173 121 traverse pd-\$1-display;
#X obj 54 145 until;
#X msg 181 164 next;
#X obj 173 97 f \$0;
#X obj 54 280 t b b;
#X obj 126 299 f;
#X obj 155 299 + 1;
#X msg 144 275 0;
#X obj 173 230 t b p;
#X obj 54 78 t b b b;
#X obj 54 456 set \$0-value visible background border y;
#X msg 54 357 1 1;
#X obj 54 380 unpack f f 0;
#X connect 0 0 11 0;
#X connect 0 1 4 1;
#X connect 1 0 12 0;
#X connect 3 0 0 0;
#X connect 4 0 5 0;
#X connect 5 0 0 0;
#X connect 6 0 3 0;
#X connect 7 0 14 0;
#X connect 7 1 8 0;
#X connect 8 0 9 0;
#X connect 8 0 13 3;
#X connect 9 0 8 1;
#X connect 10 0 8 1;
#X connect 11 0 7 0;
#X connect 11 1 13 4;
#X connect 12 0 4 0;
#X connect 12 1 10 0;
#X connect 12 2 6 0;
#X connect 14 0 15 0;
#X connect 15 0 13 0;
#X connect 15 1 13 1;
#X connect 15 2 13 2;
#X restore 59 449 pd display_all;
#N canvas 62 406 472 528 display_selected 0;
#X obj 173 188 pointer;
#X obj 54 51 inlet;
#X text 97 50 values;
#X msg 173 121 traverse pd-\$1-display;
#X obj 54 145 until;
#X msg 181 164 next;
#X obj 173 97 f \$0;
#X obj 54 303 f;
#X obj 83 303 + 1;
#X msg 72 279 0;
#X obj 173 230 t b p;
#X obj 54 78 t b b f b;
#X obj 54 327 sel, f 6;
#X obj 54 416 set \$0-value visible border background y;
#X obj 54 375 unpack f f 0 0;
#X msg 93 351 0 0;
#X msg 54 351 1 1;
#X connect 0 0 10 0;
#X connect 0 1 4 1;
#X connect 1 0 11 0;
#X connect 3 0 0 0;
#X connect 4 0 5 0;
#X connect 5 0 0 0;
#X connect 6 0 3 0;
#X connect 7 0 8 0;
#X connect 7 0 12 0;
#X connect 8 0 7 1;
#X connect 9 0 7 1;
#X connect 10 0 7 0;
#X connect 10 1 13 4;
#X connect 11 0 4 0;
#X connect 11 1 9 0;
#X connect 11 2 12 1;
#X connect 11 3 6 0;
#X connect 12 0 16 0;
#X connect 12 1 15 0;
#X connect 14 0 13 0;
#X connect 14 1 13 1;
#X connect 14 2 13 2;
#X connect 14 3 13 3;
#X connect 15 0 14 0;
#X connect 16 0 14 0;
#X restore 287 449 pd display_selected;
#X msg 506 559 0;
#X obj 450 430 t b b b;
#X obj 59 151 sel 1 0;
#X obj 247 180 f;
#X obj 59 346 t b b;
#X text 81 114 visibility status;
#X obj 247 52 inlet;
#X msg 665 486 coords 0 0 \$3 \$1 \$3 \$2 2 80 80;
#X obj 275 235 r \$0-charwidth;
#X obj 267 283 f;
#X obj 267 331 s \$0-arrow;
#X obj 275 259 + 62;
#X obj 247 204 t f b f b;
#X msg 267 307 pos \$1 0 \, pos \$1 81;
#X obj 473 607 pack s f 0 0 0;
#X connect 2 0 23 0;
#X connect 4 0 8 2;
#X connect 5 0 6 0;
#X connect 6 0 8 0;
#X connect 6 1 7 0;
#X connect 7 0 8 1;
#X connect 8 0 28 0;
#X connect 9 0 0 0;
#X connect 9 1 1 0;
#X connect 10 0 2 0;
#X connect 10 1 24 1;
#X connect 11 0 10 0;
#X connect 12 0 6 0;
#X connect 13 0 15 0;
#X connect 14 0 13 0;
#X connect 15 0 16 0;
#X connect 15 1 21 0;
#X connect 16 0 35 0;
#X connect 18 0 22 0;
#X connect 18 0 12 0;
#X connect 21 0 35 1;
#X connect 22 0 20 0;
#X connect 22 1 14 0;
#X connect 22 2 17 1;
#X connect 23 0 25 0;
#X connect 23 1 24 0;
#X connect 24 0 33 0;
#X connect 25 0 19 0;
#X connect 25 1 5 0;
#X connect 27 0 24 0;
#X connect 28 0 9 0;
#X connect 29 0 32 0;
#X connect 30 0 34 0;
#X connect 32 0 30 0;
#X connect 33 0 3 0;
#X connect 33 1 30 0;
#X connect 33 2 20 0;
#X connect 33 3 12 0;
#X connect 34 0 31 0;
#X connect 35 0 17 0;
#X restore 585 494 pd manage_state_and_clicks;
#X connect 1 0 5 0;
#X connect 2 0 13 0;
#X connect 3 0 11 1;
#X connect 4 0 11 0;
#X connect 5 0 2 0;
#X connect 5 1 2 0;
#X connect 5 2 28 0;
#X connect 5 3 28 0;
#X connect 5 4 12 0;
#X connect 8 0 7 0;
#X connect 8 0 3 0;
#X connect 8 1 9 0;
#X connect 9 0 8 0;
#X connect 10 0 26 0;
#X connect 10 1 14 0;
#X connect 11 0 10 0;
#X connect 13 1 16 0;
#X connect 14 0 6 0;
#X connect 15 0 19 0;
#X connect 16 0 22 0;
#X connect 17 0 18 0;
#X connect 18 0 33 0;
#X connect 19 0 22 0;
#X connect 19 1 17 0;
#X connect 21 0 29 0;
#X connect 22 0 23 0;
#X connect 22 1 21 0;
#X connect 27 0 2 0;
#X connect 28 0 37 0;
#X connect 29 0 31 0;
#X connect 31 0 24 0;
#X connect 33 1 25 0;
#X connect 35 0 34 0;
#X connect 36 0 35 1;
#X connect 37 0 35 0;
#X coords 0 0 42 1 42 19 2 80 80;
