#N canvas 43 57 1390 1009 12;
#X obj 333 43 inlet;
#X msg 333 91 click;
#X obj 605 67 loadbang;
#X obj 1000 43 namecanvas \$0-canvas;
#X obj 540 139 route updated;
#X obj 540 163 text size \$0-values;
#X obj 540 211 s \$0-size;
#X obj 49 328 text sequence \$0-values;
#X msg 49 304 line 0 \, bang;
#X msg 99 376 0;
#X obj 81 400 f;
#X obj 111 400 + 1;
#X obj 49 376 t l b;
#X obj 49 605 s pd-\$0-content;
#X obj 81 496 + 1;
#X obj 467 523 text get \$0-values;
#N canvas 1245 487 450 300 \$0-content 0;
#X obj 1 3 cnv 13 160 13 empty 2776-entry-chooser empty 1 7 0 12 #ffffff #000000 0;
#X coords 0 0 1 1 180 19 2 0 0;
#X restore 1000 120 pd \$0-content;
#X obj 421 867 outlet;
#X obj 488 451 tgl 19 0 empty empty empty 0 -10 0 12 #fcfcfc #000000 #000000 0 1;
#X obj 421 747 list, f 7;
#X obj 488 475 sel 0 1;
#X obj 479 747 f;
#X text 507 746 show;
#X obj 49 881 s pd-\$0-content;
#X obj 49 747 text get \$0-values;
#X obj 49 208 r \$0-display-all;
#X obj 49 650 r \$0-display-selected;
#X obj 511 499 s \$0-display-all;
#X obj 486 771 s \$0-display-selected;
#X obj 206 881 s \$0-canvas;
#X obj 206 605 s \$0-canvas;
#X obj 49 232 f;
#X obj 170 189 r \$0-size;
#X obj 1162 121 cnv 17 17 17 empty \$0-arrow ▼ 6 8 0 11 #ffffff #000000 0;
#X obj 421 843 list prepend;
#X obj 421 523 t b b;
#X obj 421 427 t b f f;
#X obj 593 259 unpack;
#X obj 557 379 f;
#X obj 449 259 unpack;
#X obj 488 403 spigot;
#X obj 527 379 ==;
#X obj 488 355 t f f b;
#X text 643 251 only accept mouseup if entry index on mousedown was identical, f 32;
#X obj 488 427 t b f;
#X obj 142 376 + 2;
#X obj 632 518 pack f \$0;
#X obj 564 747 pack f \$0;
#X text 510 452 open_state;
#X msg 646 661 \; \$2-entry-\$1 color #000000 #ffffff #ffffff;
#X msg 646 879 \; \$2-entry-\$1 color #ffffff #000000 #000000;
#X obj 49 543 list;
#X obj 49 819 list;
#X obj 81 448 t f f;
#N canvas 179 222 581 663 mouse_on_abs 0;
#X obj 228 313 route size;
#X obj 45 407 unpack;
#X obj 63 313 unpack;
#X obj 228 337 unpack;
#X obj 45 431 -;
#X obj 84 431 -;
#X obj 45 455 pack;
#X obj 45 47 iemguts/receivecanvas 2;
#X obj 45 239 t a b;
#X obj 63 289 iemguts/canvasposition 1;
#X obj 45 599 outlet;
#X obj 173 94 == 0;
#X obj 45 215 spigot 1;
#X obj 45 95 t l l;
#X obj 77 143 list split 3;
#X obj 117 167 == 2;
#X text 208 93 2 for control click (at least on macOS);
#X obj 173 407 unpack, f 10;
#X obj 173 431 -;
#X obj 240 431 -;
#X obj 173 503 &&;
#X obj 240 503 &&;
#X obj 173 527 &&;
#X obj 173 455 t f f f;
#X obj 240 455 t f f f;
#X obj 173 479 >= 0;
#X obj 240 479 >= 0;
#X obj 277 479 <;
#X obj 210 479 <;
#X obj 219 551 pack;
#X obj 173 575 list;
#X obj 173 551 sel 1;
#X obj 173 599 outlet;
#X obj 173 239 t a b;
#X text 238 288 position on abstraction;
#X obj 45 575 spigot;
#X obj 117 191 || 1;
#X obj 45 71 route mouseup mouse editmode;
#X obj 109 215 spigot 1;
#X obj 109 95 t l l;
#X obj 141 119 list split 3;
#X obj 181 167 == 2;
#X obj 181 191 || 1;
#X connect 0 0 3 0;
#X connect 1 0 4 0;
#X connect 1 1 5 0;
#X connect 2 0 4 1;
#X connect 2 0 18 1;
#X connect 2 1 5 1;
#X connect 2 1 19 1;
#X connect 3 0 28 1;
#X connect 3 1 27 1;
#X connect 4 0 6 0;
#X connect 5 0 6 1;
#X connect 6 0 35 0;
#X connect 7 0 37 0;
#X connect 8 0 1 0;
#X connect 8 1 9 0;
#X connect 9 0 2 0;
#X connect 9 2 0 0;
#X connect 11 0 36 1;
#X connect 11 0 42 1;
#X connect 12 0 8 0;
#X connect 13 0 12 0;
#X connect 13 1 14 0;
#X connect 14 1 15 0;
#X connect 15 0 36 0;
#X connect 17 0 18 0;
#X connect 17 1 19 0;
#X connect 18 0 23 0;
#X connect 19 0 24 0;
#X connect 20 0 22 0;
#X connect 21 0 22 1;
#X connect 22 0 31 0;
#X connect 22 0 35 1;
#X connect 23 0 25 0;
#X connect 23 1 28 0;
#X connect 23 2 29 0;
#X connect 24 0 26 0;
#X connect 24 1 27 0;
#X connect 24 2 29 1;
#X connect 25 0 20 0;
#X connect 26 0 21 0;
#X connect 27 0 21 1;
#X connect 28 0 20 1;
#X connect 29 0 30 1;
#X connect 30 0 32 0;
#X connect 31 0 30 0;
#X connect 33 0 17 0;
#X connect 33 1 9 0;
#X connect 35 0 10 0;
#X connect 36 0 12 1;
#X connect 37 0 13 0;
#X connect 37 1 39 0;
#X connect 37 2 11 0;
#X connect 38 0 33 0;
#X connect 39 0 38 0;
#X connect 39 1 40 0;
#X connect 40 1 41 0;
#X connect 41 0 42 0;
#X connect 42 0 38 1;
#X restore 449 235 pd mouse_on_abs;
#X obj 632 427 t f b;
#X obj 767 470 == 0;
#X obj 557 427 t f b;
#X msg 206 723 color #ffffff #000000 #000000;
#X obj 292 881 s \$0-arrow;
#X obj 714 494 spigot 1;
#X obj 646 723 spigot 1;
#X obj 564 723 spigot;
#X obj 632 494 spigot;
#X obj 81 472 * 17;
#X obj 632 331 div 17;
#X obj 488 331 div 17;
#X obj 49 256 * 17;
#X obj 671 470 t f;
#X msg 682 139 args;
#X obj 682 163 pdcontrol;
#X obj 682 187 argsparse;
#X obj 479 819 spigot;
#X obj 540 187 max 1;
#X msg 272 67 0;
#X obj 219 43 r \$0-kwarg-DONE;
#X obj 333 67 route click edit float list bang;
#X obj 251 163 text fromlist \$0-values;
#X obj 49 96 text fromlist \$0-values;
#X obj 49 72 savestate;
#X obj 49 48 text tolist \$0-values;
#X obj 219 115 t b b;
#X obj 219 91 spigot 1;
#X obj 509 91 s \$0-output;
#X text 613 948 FIXME: default value before selection? none? request?;
#X msg 206 515 donecanvasdialog 1 1 2 0 0 1 1 \$2 \$1 1000 120 \, dirty 0, f 21;
#X obj 149 496 - 2;
#X msg 206 477 clear \, donecanvasdialog 1 1 2 0 0 1 1 \$2 \$1 0 0, f 23;
#X obj 49 280 t b b f;
#X obj 142 400 pack f 180;
#X msg 49 567 obj 1 \$2 cnv 17 \$4 17 empty \$5-entry-\$3 \$1 1 9 0 12 #ffffff #000000 0, f 40;
#X obj 81 520 pack f f 178 \$0;
#X obj 74 722 - 20;
#X obj 74 795 pack 160 \$0;
#X msg 49 843 obj 1 3 cnv 13 \$2 13 empty \$3-entry-chooser \$1 1 7 0 12 #ffffff #000000 0, f 43;
#X obj 111 722 t f f;
#X msg 206 785 donecanvasdialog 1 1 2 0 0 1 1 \$1 19 1000 120 \, dirty 0, f 28;
#X msg 206 747 clear \, donecanvasdialog 1 1 2 0 0 1 1 \$1 19 0 0, f 24;
#X obj 111 698 f 180;
#X obj 49 674 t f b b, f 16;
#N canvas 411 454 252 462 max_chars 0;
#X obj 53 36 inlet;
#X obj 53 132 fudiformat;
#X obj 53 156 list tosymbol;
#X obj 53 180 list fromsymbol;
#X obj 53 204 list split 5;
#X obj 93 228 list length;
#X obj 93 252 - 2;
#X obj 53 108 text sequence \$0-values;
#X msg 53 84 line 0 \, bang;
#X obj 53 60 t b b;
#X obj 137 276 f;
#X obj 93 276 max 1;
#X msg 151 84 0;
#X obj 93 300 outlet;
#X connect 0 0 9 0;
#X connect 1 0 2 0;
#X connect 2 0 3 0;
#X connect 3 0 4 0;
#X connect 4 1 5 0;
#X connect 5 0 6 0;
#X connect 6 0 11 0;
#X connect 7 0 1 0;
#X connect 8 0 7 0;
#X connect 9 0 8 0;
#X connect 9 1 12 0;
#X connect 10 0 11 1;
#X connect 11 0 10 0;
#X connect 11 0 13 0;
#X connect 12 0 11 1;
#X restore 216 236 pd max_chars;
#X obj 605 91 bng 19 250 50 0 empty empty empty 0 -10 0 12 #fcfcfc #000000 #000000;
#X obj 605 115 t b b;
#X obj 170 213 t f b b;
#X obj 702 427 - 20;
#X obj 714 518 pack \$0 160 1162;
#X msg 646 553 \; \$1-entry-chooser color #000000 #ffffff #ffffff \; \$1-entry-chooser vis_size \$2 17 \; \$1-entry-chooser pos 1 1 \; \$1-entry-chooser label_pos 1 9 \; \$1-arrow color #000000 #ffffff #ffffff \; \$1-arrow pos \$3 121, f 48;
#X msg 646 771 \; \$1-entry-chooser color #ffffff #000000 #000000 \; \$1-entry-chooser vis_size \$2 13 \; \$1-entry-chooser pos 1 3 \; \$1-entry-chooser label_pos 1 7 \; \$1-arrow color #ffffff #000000 #000000 \; \$1-arrow pos \$3 121;
#X obj 646 747 pack \$0 160 1162;
#X obj 823 495 + 1002;
#X obj 488 283 - 2;
#X obj 632 283 - 2;
#X obj 488 307 max 0;
#X obj 632 307 max 0;
#N canvas 66 538 344 370 to_symbol 0;
#X obj 45 62 fudiformat;
#X obj 45 86 list tosymbol;
#X obj 45 110 list fromsymbol;
#X obj 45 134 list split 5;
#X obj 45 38 inlet;
#X obj 85 273 outlet;
#X obj 152 177 list length;
#X obj 85 225 list split;
#X obj 152 201 - 2;
#X obj 85 158 t l l;
#X obj 85 249 list tosymbol;
#X connect 0 0 1 0;
#X connect 1 0 2 0;
#X connect 2 0 3 0;
#X connect 3 1 9 0;
#X connect 4 0 0 0;
#X connect 6 0 8 0;
#X connect 7 0 10 0;
#X connect 8 0 7 1;
#X connect 9 0 7 0;
#X connect 9 1 6 0;
#X connect 10 0 5 0;
#X restore 49 424 pd to_symbol;
#N canvas 66 538 344 370 to_symbol 0;
#X obj 45 62 fudiformat;
#X obj 45 86 list tosymbol;
#X obj 45 110 list fromsymbol;
#X obj 45 134 list split 5;
#X obj 45 38 inlet;
#X obj 85 273 outlet;
#X obj 152 177 list length;
#X obj 85 225 list split;
#X obj 152 201 - 2;
#X obj 85 158 t l l;
#X obj 85 249 list tosymbol;
#X connect 0 0 1 0;
#X connect 1 0 2 0;
#X connect 2 0 3 0;
#X connect 3 1 9 0;
#X connect 4 0 0 0;
#X connect 6 0 8 0;
#X connect 7 0 10 0;
#X connect 8 0 7 1;
#X connect 9 0 7 0;
#X connect 9 1 6 0;
#X connect 10 0 5 0;
#X restore 49 771 pd to_symbol;
#X obj 216 351 * 7;
#X obj 333 115 text define \$0-values;
#X obj 216 375 + 22;
#X msg 251 139 list dropdown \\\;;
#X text 613 968 FIXME: 3 modes for: output index \, value \, index+value;
#X obj 439 566 r \$0-kwarg-mode;
#X text 704 42 dropdown abstraction \; argument "-mode" to change modes: output index \, value \, index+value, f 33;
#X obj 338 674 r \$0-output;
#X obj 421 723 sel 1 0;
#X obj 439 590 + 1;
#X obj 439 638 & 1;
#X obj 518 638 & 1;
#X obj 518 614 >> 1;
#X obj 421 699 f 1;
#X obj 742 211 sendkwarg \$0;
#X connect 0 0 76 0;
#X connect 1 0 117 0;
#X connect 2 0 101 0;
#X connect 4 0 5 0;
#X connect 5 0 73 0;
#X connect 7 0 12 0;
#X connect 8 0 7 0;
#X connect 9 0 10 1;
#X connect 10 0 11 0;
#X connect 10 0 53 0;
#X connect 11 0 10 1;
#X connect 12 0 114 0;
#X connect 12 1 10 0;
#X connect 14 0 91 0;
#X connect 15 0 19 1;
#X connect 18 0 20 0;
#X connect 18 0 56 0;
#X connect 18 0 68 0;
#X connect 19 0 34 0;
#X connect 20 0 35 0;
#X connect 20 1 27 0;
#X connect 21 0 28 0;
#X connect 21 0 72 0;
#X connect 24 0 115 0;
#X connect 25 0 31 0;
#X connect 26 0 99 0;
#X connect 31 0 67 0;
#X connect 32 0 103 0;
#X connect 34 0 17 0;
#X connect 35 0 129 0;
#X connect 35 1 21 0;
#X connect 36 0 35 0;
#X connect 36 1 21 1;
#X connect 36 2 15 0;
#X connect 37 1 111 0;
#X connect 38 0 41 1;
#X connect 38 0 57 0;
#X connect 39 1 110 0;
#X connect 40 0 44 0;
#X connect 41 0 40 1;
#X connect 42 0 40 0;
#X connect 42 1 41 0;
#X connect 42 2 38 0;
#X connect 44 0 18 0;
#X connect 44 1 21 1;
#X connect 44 1 15 0;
#X connect 45 0 89 0;
#X connect 46 0 49 0;
#X connect 47 0 50 0;
#X connect 51 0 90 0;
#X connect 52 0 94 0;
#X connect 53 0 64 0;
#X connect 53 1 91 1;
#X connect 54 0 39 0;
#X connect 54 1 37 0;
#X connect 55 0 63 0;
#X connect 55 1 60 0;
#X connect 56 0 60 1;
#X connect 56 0 61 1;
#X connect 57 0 62 0;
#X connect 57 1 61 0;
#X connect 58 0 59 0;
#X connect 60 0 105 0;
#X connect 61 0 108 0;
#X connect 62 0 47 0;
#X connect 63 0 46 0;
#X connect 64 0 14 0;
#X connect 65 0 38 1;
#X connect 65 0 55 0;
#X connect 66 0 42 0;
#X connect 67 0 88 0;
#X connect 68 0 63 1;
#X connect 68 0 62 1;
#X connect 69 0 70 0;
#X connect 70 0 71 0;
#X connect 71 1 130 0;
#X connect 72 0 34 1;
#X connect 73 0 6 0;
#X connect 74 0 82 1;
#X connect 75 0 82 0;
#X connect 76 0 1 0;
#X connect 76 1 1 0;
#X connect 76 2 36 0;
#X connect 76 3 36 0;
#X connect 76 4 83 0;
#X connect 79 0 78 0;
#X connect 79 0 74 0;
#X connect 79 1 80 0;
#X connect 80 0 79 0;
#X connect 81 0 1 0;
#X connect 81 1 119 0;
#X connect 82 0 81 0;
#X connect 85 0 30 0;
#X connect 86 0 91 2;
#X connect 87 0 13 0;
#X connect 88 0 8 0;
#X connect 88 1 9 0;
#X connect 88 2 45 0;
#X connect 89 0 87 0;
#X connect 89 0 85 0;
#X connect 90 0 13 0;
#X connect 91 0 51 1;
#X connect 92 0 93 0;
#X connect 93 0 52 1;
#X connect 94 0 23 0;
#X connect 95 0 96 0;
#X connect 95 1 97 0;
#X connect 96 0 29 0;
#X connect 97 0 23 0;
#X connect 98 0 95 0;
#X connect 98 0 92 0;
#X connect 99 0 24 0;
#X connect 99 1 98 0;
#X connect 99 2 58 0;
#X connect 100 0 116 0;
#X connect 101 0 102 0;
#X connect 102 0 5 0;
#X connect 102 1 69 0;
#X connect 103 0 31 1;
#X connect 103 1 99 0;
#X connect 103 1 108 0;
#X connect 103 2 100 0;
#X connect 104 0 105 1;
#X connect 104 0 108 1;
#X connect 104 0 109 0;
#X connect 105 0 106 0;
#X connect 108 0 107 0;
#X connect 109 0 105 2;
#X connect 109 0 108 2;
#X connect 110 0 112 0;
#X connect 111 0 113 0;
#X connect 112 0 66 0;
#X connect 113 0 65 0;
#X connect 114 0 51 0;
#X connect 115 0 52 0;
#X connect 116 0 118 0;
#X connect 117 1 4 0;
#X connect 118 0 89 1;
#X connect 118 0 86 0;
#X connect 118 0 98 1;
#X connect 118 0 104 0;
#X connect 119 0 77 0;
#X connect 121 0 125 0;
#X connect 123 0 129 0;
#X connect 124 0 19 0;
#X connect 124 1 34 0;
#X connect 125 0 126 0;
#X connect 125 0 128 0;
#X connect 126 0 129 1;
#X connect 127 0 72 1;
#X connect 128 0 127 0;
#X connect 129 0 124 0;
#X coords 0 0 1 1 180 19 2 1000 120;
